<svg width="25" height="25" viewBox="0 0 25 25" fill="none" xmlns="http://www.w3.org/2000/svg">
<path d="M12.5 0C14.1576 0 15.7473 0.65848 16.9194 1.83058C18.0915 3.00268 18.75 4.5924 18.75 6.25C18.75 7.9076 18.0915 9.49732 16.9194 10.6694C15.7473 11.8415 14.1576 12.5 12.5 12.5C10.8424 12.5 9.25268 11.8415 8.08058 10.6694C6.90848 9.49732 6.25 7.9076 6.25 6.25C6.25 4.5924 6.90848 3.00268 8.08058 1.83058C9.25268 0.65848 10.8424 0 12.5 0ZM12.5 3.125C11.6712 3.125 10.8763 3.45424 10.2903 4.04029C9.70424 4.62634 9.375 5.4212 9.375 6.25C9.375 7.0788 9.70424 7.87366 10.2903 8.45971C10.8763 9.04576 11.6712 9.375 12.5 9.375C13.3288 9.375 14.1237 9.04576 14.7097 8.45971C15.2958 7.87366 15.625 7.0788 15.625 6.25C15.625 5.4212 15.2958 4.62634 14.7097 4.04029C14.1237 3.45424 13.3288 3.125 12.5 3.125ZM12.5 14.0625C16.6719 14.0625 25 16.1406 25 20.3125V25H0V20.3125C0 16.1406 8.32812 14.0625 12.5 14.0625ZM12.5 17.0312C7.85938 17.0312 2.96875 19.3125 2.96875 20.3125V22.0312H22.0312V20.3125C22.0312 19.3125 17.1406 17.0312 12.5 17.0312Z" fill="#1A1B22"/>
</svg>
