<svg width="31" height="25" viewBox="0 0 31 25" fill="none" xmlns="http://www.w3.org/2000/svg">
<path d="M29.5909 9.21053H22.8414L16.6695 0.578947C16.4018 0.210526 15.9509 0 15.5 0C15.0491 0 14.5982 0.210526 14.3305 0.592105L8.15864 9.21053H1.40909C0.634091 9.21053 0 9.80263 0 10.5263C0 10.6447 -5.24927e-08 10.7632 0.0563636 10.8816L3.63545 23.0789C3.95955 24.1842 5.04455 25 6.34091 25H24.6591C25.9555 25 27.0405 24.1842 27.3786 23.0789L30.9577 10.8816L31 10.5263C31 9.80263 30.3659 9.21053 29.5909 9.21053ZM15.5 3.68421L19.4455 9.21053H11.5545L15.5 3.68421ZM24.6591 22.3684H6.34091L3.255 11.8421H27.7591L24.6591 22.3684ZM15.5 14.4737C13.95 14.4737 12.6818 15.6579 12.6818 17.1053C12.6818 18.5526 13.95 19.7368 15.5 19.7368C17.05 19.7368 18.3182 18.5526 18.3182 17.1053C18.3182 15.6579 17.05 14.4737 15.5 14.4737Z" fill="#232323"/>
</svg>
