<svg width="50" height="40" viewBox="0 0 50 40" fill="none" xmlns="http://www.w3.org/2000/svg">
<path d="M20 28.5714L32.975 20L20 11.4286V28.5714ZM48.9 6.2C49.225 7.54286 49.45 9.34286 49.6 11.6286C49.775 13.9143 49.85 15.8857 49.85 17.6L50 20C50 26.2571 49.6 30.8571 48.9 33.8C48.275 36.3714 46.825 38.0286 44.575 38.7429C43.4 39.1143 41.25 39.3714 37.95 39.5429C34.7 39.7429 31.725 39.8286 28.975 39.8286L25 40C14.525 40 8 39.5429 5.425 38.7429C3.175 38.0286 1.725 36.3714 1.1 33.8C0.775 32.4571 0.55 30.6571 0.4 28.3714C0.225 26.0857 0.15 24.1143 0.15 22.4L0 20C0 13.7429 0.4 9.14286 1.1 6.2C1.725 3.62857 3.175 1.97143 5.425 1.25714C6.6 0.885714 8.75 0.628571 12.05 0.457142C15.3 0.257142 18.275 0.171428 21.025 0.171428L25 0C35.475 0 42 0.457143 44.575 1.25714C46.825 1.97143 48.275 3.62857 48.9 6.2Z" fill="#232323"/>
</svg>
