<svg width="20" height="20" viewBox="0 0 20 20" fill="none" xmlns="http://www.w3.org/2000/svg">
<mask id="path-1-inside-1_306_1873" fill="white">
<path d="M10 0C11.3132 0 12.6136 0.258658 13.8268 0.761205C15.0401 1.26375 16.1425 2.00035 17.0711 2.92893C17.9997 3.85752 18.7362 4.95991 19.2388 6.17317C19.7413 7.38642 20 8.68678 20 10C20 12.6522 18.9464 15.1957 17.0711 17.0711C15.1957 18.9464 12.6522 20 10 20C8.68678 20 7.38642 19.7413 6.17317 19.2388C4.95991 18.7362 3.85752 17.9997 2.92893 17.0711C1.05357 15.1957 0 12.6522 0 10C0 7.34784 1.05357 4.8043 2.92893 2.92893C4.8043 1.05357 7.34784 0 10 0ZM10 2C7.87827 2 5.84344 2.84285 4.34315 4.34315C2.84285 5.84344 2 7.87827 2 10C2 12.1217 2.84285 14.1566 4.34315 15.6569C5.84344 17.1571 7.87827 18 10 18C12.1217 18 14.1566 17.1571 15.6569 15.6569C17.1571 14.1566 18 12.1217 18 10C18 7.87827 17.1571 5.84344 15.6569 4.34315C14.1566 2.84285 12.1217 2 10 2ZM14 8V15C14 15.2652 13.8946 15.5196 13.7071 15.7071C13.5196 15.8946 13.2652 16 13 16H7C6.73478 16 6.48043 15.8946 6.29289 15.7071C6.10536 15.5196 6 15.2652 6 15V8H14ZM11.5 4L12.5 5H15V7H5V5H7.5L8.5 4H11.5Z"/>
</mask>
<path d="M20 10H21H20ZM0 10H-1H0ZM2 10H1H2ZM10 18V19V18ZM18 10H19H18ZM14 8H15V7H14V8ZM6 15H7H6ZM6 8V7H5V8H6ZM11.5 4L12.2071 3.29289L11.9142 3H11.5V4ZM12.5 5L11.7929 5.70711L12.0858 6H12.5V5ZM15 5H16V4H15V5ZM15 7V8H16V7H15ZM5 7H4V8H5V7ZM5 5V4H4V5H5ZM7.5 5V6H7.91421L8.20711 5.70711L7.5 5ZM8.5 4V3H8.08579L7.79289 3.29289L8.5 4ZM10 1C11.1819 1 12.3522 1.23279 13.4442 1.68508L14.2095 -0.162675C12.8749 -0.715477 11.4445 -1 10 -1V1ZM13.4442 1.68508C14.5361 2.13738 15.5282 2.80031 16.364 3.63604L17.7782 2.22183C16.7567 1.20038 15.5441 0.390127 14.2095 -0.162675L13.4442 1.68508ZM16.364 3.63604C17.1997 4.47177 17.8626 5.46392 18.3149 6.55585L20.1627 5.79048C19.6099 4.4559 18.7996 3.24327 17.7782 2.22183L16.364 3.63604ZM18.3149 6.55585C18.7672 7.64778 19 8.8181 19 10H21C21 8.55546 20.7155 7.12506 20.1627 5.79048L18.3149 6.55585ZM19 10C19 12.3869 18.0518 14.6761 16.364 16.364L17.7782 17.7782C19.8411 15.7153 21 12.9174 21 10H19ZM16.364 16.364C14.6761 18.0518 12.3869 19 10 19V21C12.9174 21 15.7153 19.8411 17.7782 17.7782L16.364 16.364ZM10 19C8.8181 19 7.64778 18.7672 6.55585 18.3149L5.79048 20.1627C7.12506 20.7155 8.55546 21 10 21V19ZM6.55585 18.3149C5.46392 17.8626 4.47177 17.1997 3.63604 16.364L2.22183 17.7782C3.24327 18.7996 4.4559 19.6099 5.79048 20.1627L6.55585 18.3149ZM3.63604 16.364C1.94821 14.6761 1 12.3869 1 10H-1C-1 12.9174 0.158925 15.7153 2.22183 17.7782L3.63604 16.364ZM1 10C1 7.61305 1.94821 5.32387 3.63604 3.63604L2.22183 2.22183C0.158925 4.28473 -1 7.08262 -1 10H1ZM3.63604 3.63604C5.32387 1.94821 7.61305 1 10 1V-1C7.08262 -1 4.28473 0.158925 2.22183 2.22183L3.63604 3.63604ZM10 1C7.61305 1 5.32387 1.94821 3.63604 3.63604L5.05025 5.05025C6.36301 3.7375 8.14348 3 10 3V1ZM3.63604 3.63604C1.94821 5.32387 1 7.61305 1 10H3C3 8.14348 3.7375 6.36301 5.05025 5.05025L3.63604 3.63604ZM1 10C1 12.3869 1.94821 14.6761 3.63604 16.364L5.05025 14.9497C3.7375 13.637 3 11.8565 3 10H1ZM3.63604 16.364C5.32387 18.0518 7.61305 19 10 19V17C8.14348 17 6.36301 16.2625 5.05025 14.9497L3.63604 16.364ZM10 19C12.3869 19 14.6761 18.0518 16.364 16.364L14.9497 14.9497C13.637 16.2625 11.8565 17 10 17V19ZM16.364 16.364C18.0518 14.6761 19 12.3869 19 10H17C17 11.8565 16.2625 13.637 14.9497 14.9497L16.364 16.364ZM19 10C19 7.61305 18.0518 5.32387 16.364 3.63604L14.9497 5.05025C16.2625 6.36301 17 8.14348 17 10H19ZM16.364 3.63604C14.6761 1.94821 12.3869 1 10 1V3C11.8565 3 13.637 3.7375 14.9497 5.05025L16.364 3.63604ZM13 8V15H15V8H13ZM13 15V15L14.4142 16.4142C14.7893 16.0391 15 15.5304 15 15H13ZM13 15V15V17C13.5304 17 14.0391 16.7893 14.4142 16.4142L13 15ZM13 15H7V17H13V15ZM7 15V15L5.58579 16.4142C5.96086 16.7893 6.46957 17 7 17V15ZM7 15V15H5C5 15.5304 5.21071 16.0391 5.58579 16.4142L7 15ZM7 15V8H5V15H7ZM6 9H14V7H6V9ZM10.7929 4.70711L11.7929 5.70711L13.2071 4.29289L12.2071 3.29289L10.7929 4.70711ZM12.5 6H15V4H12.5V6ZM14 5V7H16V5H14ZM15 6H5V8H15V6ZM6 7V5H4V7H6ZM5 6H7.5V4H5V6ZM8.20711 5.70711L9.20711 4.70711L7.79289 3.29289L6.79289 4.29289L8.20711 5.70711ZM8.5 5H11.5V3H8.5V5Z" fill="#1A1B22" mask="url(#path-1-inside-1_306_1873)"/>
</svg>
