<svg width="25" height="26" viewBox="0 0 25 26" fill="none" xmlns="http://www.w3.org/2000/svg">
<path opacity="0.2" d="M11.25 16.8633H13.75V19.3633H11.25V16.8633ZM11.25 6.86328H13.75V14.3633H11.25V6.86328ZM12.5 0.613281C5.5875 0.613281 0 6.23828 0 13.1133C0 16.4285 1.31696 19.6079 3.66117 21.9521C4.8219 23.1128 6.19989 24.0336 7.71646 24.6618C9.23303 25.29 10.8585 25.6133 12.5 25.6133C15.8152 25.6133 18.9946 24.2963 21.3388 21.9521C23.683 19.6079 25 16.4285 25 13.1133C25 11.4718 24.6767 9.84631 24.0485 8.32974C23.4203 6.81317 22.4996 5.43518 21.3388 4.27445C20.1781 3.11371 18.8001 2.19297 17.2835 1.56479C15.767 0.936603 14.1415 0.613281 12.5 0.613281ZM12.5 23.1133C9.84784 23.1133 7.3043 22.0597 5.42893 20.1843C3.55357 18.309 2.5 15.7654 2.5 13.1133C2.5 10.4611 3.55357 7.91758 5.42893 6.04221C7.3043 4.16685 9.84784 3.11328 12.5 3.11328C15.1522 3.11328 17.6957 4.16685 19.5711 6.04221C21.4464 7.91758 22.5 10.4611 22.5 13.1133C22.5 15.7654 21.4464 18.309 19.5711 20.1843C17.6957 22.0597 15.1522 23.1133 12.5 23.1133Z" fill="#484747"/>
</svg>
