<svg width="488" height="117" viewBox="0 0 488 117" fill="none" xmlns="http://www.w3.org/2000/svg">
<path d="M3.9375 21.1094H37.3594V36.2969H23.6719V50.6875H35.8594V65.125H23.6719V97H3.9375V21.1094ZM127.031 21.1094H141C150.312 21.1094 156.609 21.4688 159.891 22.1875C163.203 22.9062 165.891 24.75 167.953 27.7188C170.047 30.6563 171.094 35.3594 171.094 41.8281C171.094 47.7344 170.359 51.7031 168.891 53.7344C167.422 55.7656 164.531 56.9844 160.219 57.3906C164.125 58.3594 166.75 59.6562 168.094 61.2812C169.438 62.9062 170.266 64.4062 170.578 65.7812C170.922 67.125 171.094 70.8594 171.094 76.9844V97H152.766V71.7812C152.766 67.7188 152.438 65.2031 151.781 64.2344C151.156 63.2656 149.484 62.7812 146.766 62.7812V97H127.031V21.1094ZM146.766 34.0938V50.9688C148.984 50.9688 150.531 50.6719 151.406 50.0781C152.312 49.4531 152.766 47.4688 152.766 44.125V39.9531C152.766 37.5469 152.328 35.9688 151.453 35.2188C150.609 34.4688 149.047 34.0938 146.766 34.0938ZM224.062 49.0469H204.328V42.1562C204.328 37.8125 204.141 35.0938 203.766 34C203.391 32.9062 202.5 32.3594 201.094 32.3594C199.875 32.3594 199.047 32.8281 198.609 33.7656C198.172 34.7031 197.953 37.1094 197.953 40.9844V77.4062C197.953 80.8125 198.172 83.0625 198.609 84.1562C199.047 85.2188 199.922 85.75 201.234 85.75C202.672 85.75 203.641 85.1406 204.141 83.9219C204.672 82.7031 204.938 80.3281 204.938 76.7969V67.7969H200.953V56.2656H224.062V97H211.641L209.812 91.5625C208.469 93.9062 206.766 95.6719 204.703 96.8594C202.672 98.0156 200.266 98.5938 197.484 98.5938C194.172 98.5938 191.062 97.7969 188.156 96.2031C185.281 94.5781 183.094 92.5781 181.594 90.2031C180.094 87.8281 179.156 85.3438 178.781 82.75C178.406 80.125 178.219 76.2031 178.219 70.9844V48.4375C178.219 41.1875 178.609 35.9219 179.391 32.6406C180.172 29.3594 182.406 26.3594 186.094 23.6406C189.812 20.8906 194.609 19.5156 200.484 19.5156C206.266 19.5156 211.062 20.7031 214.875 23.0781C218.688 25.4531 221.172 28.2812 222.328 31.5625C223.484 34.8125 224.062 39.5469 224.062 45.7656V49.0469ZM231.75 21.1094H264.656V36.2969H251.484V50.6875H263.812V65.125H251.484V81.8125H265.969V97H231.75V21.1094ZM315.75 21.1094V97H298.453L288.188 62.5V97H271.688V21.1094H288.188L299.25 55.2812V21.1094H315.75ZM385.969 49.0469H366.234V42.1562C366.234 37.8125 366.047 35.0938 365.672 34C365.297 32.9062 364.406 32.3594 363 32.3594C361.781 32.3594 360.953 32.8281 360.516 33.7656C360.078 34.7031 359.859 37.1094 359.859 40.9844V77.4062C359.859 80.8125 360.078 83.0625 360.516 84.1562C360.953 85.2188 361.828 85.75 363.141 85.75C364.578 85.75 365.547 85.1406 366.047 83.9219C366.578 82.7031 366.844 80.3281 366.844 76.7969V67.7969H362.859V56.2656H385.969V97H373.547L371.719 91.5625C370.375 93.9062 368.672 95.6719 366.609 96.8594C364.578 98.0156 362.172 98.5938 359.391 98.5938C356.078 98.5938 352.969 97.7969 350.062 96.2031C347.188 94.5781 345 92.5781 343.5 90.2031C342 87.8281 341.062 85.3438 340.688 82.75C340.312 80.125 340.125 76.2031 340.125 70.9844V48.4375C340.125 41.1875 340.516 35.9219 341.297 32.6406C342.078 29.3594 344.312 26.3594 348 23.6406C351.719 20.8906 356.516 19.5156 362.391 19.5156C368.172 19.5156 372.969 20.7031 376.781 23.0781C380.594 25.4531 383.078 28.2812 384.234 31.5625C385.391 34.8125 385.969 39.5469 385.969 45.7656V49.0469ZM439.031 21.1094V97H419.297V65.125H413.391V97H393.656V21.1094H413.391V48.25H419.297V21.1094H439.031ZM486.75 21.1094V36.2969H475.031V97H455.297V36.2969H443.625V21.1094H486.75Z" fill="#232323"/>
<path fill-rule="evenodd" clip-rule="evenodd" d="M80.848 22.024C79.9757 22.07 79.2202 22.1346 79.1931 22.1657C79.1804 22.1802 78.9811 23.8044 78.7502 25.775C78.5194 27.7457 78.3215 29.41 78.3106 29.4735L78.2907 29.589L77.8528 29.6539C75.9743 29.9326 73.8526 30.4881 71.9267 31.2057C71.5085 31.3615 71.1609 31.4823 71.1543 31.474C71.1477 31.4658 70.3683 30.4207 69.4224 29.1517C68.4764 27.8826 67.471 26.5361 67.1881 26.1594L66.6737 25.4745L65.6469 25.9926C64.5563 26.5429 63.4898 27.1439 62.5377 27.7447C61.779 28.2236 60.9618 28.781 60.9618 28.8196C60.9618 28.8365 61.6137 30.3658 62.4104 32.2181C63.2071 34.0705 63.8667 35.6123 63.8762 35.6444C63.8878 35.684 63.7384 35.8288 63.4126 36.0936C61.9044 37.3194 60.3305 38.8947 59.0727 40.4378C58.8201 40.7476 58.6767 40.8944 58.6376 40.8832C58.6055 40.8741 57.0633 40.2145 55.2104 39.4175C53.3575 38.6206 51.8279 37.9685 51.8112 37.9685C51.7313 37.9685 50.5716 39.7711 49.8922 40.9512C49.4131 41.7836 48.4542 43.6748 48.4942 43.7087C48.5161 43.7272 54.3898 48.1057 54.466 48.1603C54.4738 48.1659 54.3617 48.4877 54.2169 48.8754C53.4924 50.816 52.924 52.9816 52.646 54.8611C52.6101 55.1035 52.5712 55.3028 52.5596 55.304C52.5479 55.3051 50.8754 55.5037 48.8429 55.7453L45.1474 56.1845L45.1227 56.3577C44.9591 57.5009 44.9591 61.5068 45.1226 62.65L45.1474 62.8229L48.8429 63.2624C50.8753 63.5041 52.5479 63.7028 52.5596 63.704C52.5712 63.7051 52.6102 63.9044 52.6462 64.1468C52.9293 66.0552 53.5 68.2165 54.2465 70.2077L54.4827 70.8377L54.3922 70.9011C53.7247 71.3685 48.4892 75.3219 48.4978 75.3519C48.5702 75.6039 49.5163 77.4122 50.0798 78.3756C50.7154 79.4624 51.7408 81.0394 51.8118 81.0394C51.8284 81.0394 53.3578 80.3874 55.2106 79.5905C57.0633 78.7936 58.6056 78.134 58.6379 78.1247C58.6776 78.1134 58.8191 78.258 59.0735 78.5701C60.3436 80.1274 61.8739 81.6576 63.4314 82.9276C63.7435 83.182 63.8881 83.3235 63.8767 83.3631C63.8675 83.3954 63.2078 84.9376 62.4109 86.7902C61.6139 88.6428 60.9618 90.1733 60.9618 90.1913C60.9618 90.2245 62.2038 91.0595 62.8191 91.4399C63.9297 92.1266 65.49 92.9757 66.423 93.4012L66.6876 93.5219L68.9182 90.5286C70.145 88.8823 71.1666 87.5342 71.1884 87.5327C71.2102 87.5313 71.3706 87.5875 71.5449 87.6577C73.3123 88.3694 75.8917 89.0625 77.8557 89.3533C78.0982 89.3892 78.2976 89.4284 78.2989 89.4404C78.3001 89.4524 78.4988 91.1251 78.7403 93.1575L79.1795 96.8526L79.3526 96.8773C80.4959 97.0409 84.5021 97.0409 85.6455 96.8773L85.8187 96.8526L86.2581 93.1574C86.4997 91.1251 86.6983 89.4527 86.6994 89.441C86.7005 89.4294 86.8997 89.3904 87.1422 89.3544C89.0507 89.0713 91.2122 88.5007 93.2035 87.7543L93.8336 87.5181L93.8969 87.6085C93.9485 87.6821 98.2844 93.4902 98.3135 93.5245C98.3362 93.5513 100.463 92.447 101.128 92.0633C102.295 91.3897 104.036 90.2675 104.036 90.1887C104.036 90.1721 103.384 88.6428 102.587 86.7902C101.79 84.9376 101.131 83.3954 101.121 83.3631C101.11 83.3235 101.254 83.1823 101.567 82.9276C103.122 81.6593 104.662 80.1194 105.925 78.5701C106.178 78.26 106.321 78.1135 106.36 78.1247C106.392 78.1339 107.935 78.7935 109.787 79.5904C111.64 80.3874 113.17 81.0394 113.186 81.0394C113.224 81.0394 113.784 80.2183 114.261 79.4637C114.971 78.3384 115.971 76.525 116.393 75.5975L116.522 75.3144L113.527 73.0838C111.879 71.857 110.531 70.8384 110.53 70.8202C110.528 70.8021 110.622 70.5404 110.739 70.2387C111.452 68.3894 112.115 65.8673 112.369 64.0343C112.394 63.8537 112.425 63.705 112.437 63.7039C112.45 63.7027 114.123 63.5039 116.155 63.2622L119.851 62.8226L119.877 62.6171C119.953 61.9994 120 60.8229 120 59.504C120 58.185 119.953 57.0085 119.877 56.3908L119.851 56.1853L116.155 55.7457C114.123 55.504 112.45 55.3052 112.438 55.304C112.427 55.3029 112.388 55.1035 112.352 54.8611C112.061 52.9019 111.365 50.3147 110.655 48.5507C110.585 48.3765 110.528 48.2161 110.53 48.1943C110.531 48.1725 111.879 47.1507 113.526 45.9235L116.521 43.6924L116.355 43.3348C115.896 42.3456 114.967 40.6631 114.261 39.5442C113.784 38.7896 113.224 37.9685 113.186 37.9685C113.17 37.9685 111.64 38.6205 109.787 39.4175C107.935 40.2144 106.392 40.874 106.36 40.8833C106.32 40.8946 106.179 40.7496 105.924 40.4378C104.654 38.8805 103.124 37.3503 101.567 36.0803C101.255 35.8266 101.11 35.6843 101.121 35.6448C101.13 35.6125 101.79 34.0701 102.587 32.2173C103.384 30.3645 104.036 28.834 104.036 28.8162C104.036 28.7509 102.303 27.6284 101.297 27.0421C100.39 26.5135 98.5848 25.5729 98.3478 25.5054C98.325 25.4989 97.3229 26.8105 96.1209 28.4201C94.9189 30.0296 93.9055 31.3777 93.8688 31.4158C93.8042 31.483 93.7859 31.4789 93.2629 31.2782C91.3483 30.5438 89.0884 29.9436 87.1516 29.6553C86.9143 29.6199 86.7146 29.5865 86.7078 29.581C86.701 29.5756 86.4979 27.9025 86.2563 25.8631L85.817 22.1552L85.6307 22.1296C84.8761 22.026 82.0122 21.9628 80.848 22.024ZM84.0186 37.5198C89.9673 37.9138 95.5769 40.7823 99.4164 45.3933C102.394 48.9693 104.15 53.3105 104.487 57.9282C104.538 58.6303 104.538 60.3817 104.486 61.0797C104.019 67.4373 100.881 73.2048 95.7815 77.0789C92.3998 79.6482 88.4042 81.1564 84.0936 81.4907C83.4023 81.5443 81.6133 81.5438 80.9043 81.4898C75.5572 81.0826 70.7067 78.8572 66.9255 75.0762C62.9498 71.101 60.6679 65.8784 60.4779 60.32C60.3502 56.5844 61.1003 53.0651 62.7271 49.768C64.457 46.2617 67.1576 43.2132 70.4359 41.0662C74.48 38.4176 79.1529 37.1975 84.0186 37.5198ZM81.6172 38.9302C79.3812 39.0373 77.1779 39.4965 75.1395 40.28C69.0887 42.6061 64.4549 47.6738 62.6885 53.8966C61.5007 58.0813 61.6821 62.6095 63.2003 66.6699C65.8862 73.8536 72.3654 78.9894 79.9288 79.9299C81.5759 80.1348 83.4221 80.1348 85.0692 79.9299C89.0424 79.4359 92.818 77.7572 95.9128 75.1086C96.4909 74.6139 97.6101 73.4948 98.1049 72.9167C100.754 69.8223 102.434 66.0435 102.926 62.074C103.147 60.295 103.127 58.2809 102.872 56.5323C101.56 47.556 94.4472 40.4395 85.4819 39.1343C84.3751 38.9732 82.6364 38.8814 81.6172 38.9302ZM83.7974 41.8335C87.5789 42.1317 91.0092 43.5263 93.9054 45.9431C94.4077 46.3622 95.3432 47.2824 95.8296 47.8358C99.1657 51.6312 100.707 56.6865 100.074 61.755C99.7072 64.6922 98.5495 67.5881 96.7848 69.9833C96.2445 70.7167 95.7523 71.2833 95.0157 72.0197C94.0461 72.9893 93.1889 73.6896 92.1349 74.3732C88.3472 76.83 83.75 77.7426 79.2722 76.9268C74.5709 76.0703 70.365 73.2771 67.6975 69.2399C66.0349 66.7236 65.0705 63.8887 64.8271 60.8023C64.7468 59.7833 64.7856 58.36 64.9239 57.2529C65.1127 55.7415 65.5697 54.0337 66.1588 52.6381C67.5206 49.4124 69.824 46.6448 72.7622 44.7037C75.2498 43.0603 78.1087 42.0806 81.1295 41.8362C81.6842 41.7913 83.2425 41.7897 83.7974 41.8335Z" fill="#232323"/>
<path d="M321 41L328 44.5745L335 41V97H321V41Z" fill="#232323"/>
<path fill-rule="evenodd" clip-rule="evenodd" d="M327.398 20.0106C327.356 20.0179 327.299 20.0404 327.272 20.0606C327.182 20.1282 327.165 20.1834 327.132 20.5081C327.1 20.8383 327.069 20.9408 326.987 20.9947C326.929 21.0327 326.53 21.1013 326.452 21.0866C326.341 21.0658 326.288 20.9956 326.151 20.6884C326.014 20.3808 325.993 20.3485 325.911 20.3058C325.805 20.2511 325.501 20.3118 325.39 20.4097C325.283 20.5033 325.28 20.5285 325.324 20.9109C325.378 21.381 325.369 21.3993 325.013 21.5364C324.827 21.6079 324.795 21.6151 324.73 21.6004C324.633 21.5786 324.614 21.5599 324.395 21.2699C324.293 21.1337 324.188 21.009 324.164 20.9927C324.139 20.9765 324.084 20.9594 324.042 20.9546C323.977 20.9473 323.941 20.9589 323.796 21.0335C323.655 21.1056 323.618 21.1336 323.585 21.1931C323.562 21.2327 323.544 21.2904 323.544 21.3212C323.544 21.352 323.593 21.5222 323.653 21.6994C323.756 22.003 323.761 22.0259 323.741 22.0941C323.712 22.193 323.688 22.2166 323.474 22.3584C323.197 22.542 323.171 22.5367 322.816 22.2293C322.688 22.1184 322.564 22.0203 322.54 22.0114C322.468 21.984 322.368 21.9934 322.302 22.0338C322.189 22.1025 322.045 22.2371 322.02 22.2965C321.969 22.4194 321.985 22.4784 322.143 22.7367C322.338 23.0563 322.356 23.0923 322.356 23.1604C322.356 23.2599 322.323 23.3151 322.17 23.47C321.915 23.7294 321.903 23.7301 321.493 23.5093C321.159 23.3291 321.103 23.3157 320.985 23.3877C320.901 23.4392 320.745 23.6445 320.72 23.737C320.685 23.8678 320.716 23.9249 320.961 24.1753C321.082 24.2997 321.196 24.4293 321.213 24.4631C321.263 24.5619 321.242 24.6477 321.116 24.8564C320.933 25.159 320.913 25.1646 320.474 25.0398C320.245 24.9747 320.132 24.9508 320.083 24.9571C319.975 24.9714 319.906 25.0381 319.827 25.2062C319.744 25.3811 319.734 25.4958 319.794 25.5781C319.814 25.6052 319.951 25.7092 320.099 25.8093C320.385 26.0034 320.448 26.0695 320.448 26.1752C320.448 26.2565 320.332 26.6109 320.286 26.6695C320.267 26.6935 320.223 26.7268 320.188 26.7434C320.13 26.7708 320.093 26.7716 319.784 26.7521C319.458 26.7314 319.441 26.732 319.375 26.7663C319.278 26.8163 319.237 26.8875 319.199 27.0663C319.135 27.3707 319.178 27.4249 319.61 27.5912C319.777 27.6555 319.928 27.7208 319.945 27.7362C319.962 27.7517 319.99 27.7952 320.007 27.8328C320.035 27.8963 320.035 27.9185 320.011 28.132C319.97 28.4859 319.953 28.5005 319.506 28.5687C319.165 28.6206 319.114 28.6397 319.038 28.7424C319.005 28.787 319 28.8186 319 28.998C319 29.1774 319.005 29.2089 319.038 29.2535C319.114 29.3563 319.165 29.3754 319.506 29.4272C319.953 29.4954 319.97 29.5101 320.011 29.864C320.035 30.0775 320.035 30.0997 320.007 30.1631C319.99 30.2008 319.962 30.2443 319.945 30.2597C319.928 30.2752 319.777 30.3404 319.61 30.4048C319.178 30.5711 319.135 30.6252 319.199 30.9296C319.237 31.1084 319.278 31.1797 319.375 31.2297C319.441 31.264 319.458 31.2646 319.784 31.2439C320.254 31.2141 320.271 31.2232 320.384 31.563C320.459 31.7884 320.464 31.863 320.408 31.9451C320.385 31.9787 320.251 32.0837 320.099 32.1866C319.951 32.2868 319.814 32.3908 319.794 32.4178C319.734 32.5002 319.744 32.6148 319.827 32.7897C319.906 32.9578 319.975 33.0246 320.083 33.0388C320.132 33.0452 320.245 33.0213 320.474 32.9562C320.913 32.8313 320.933 32.8369 321.116 33.1395C321.242 33.3482 321.263 33.434 321.213 33.5328C321.196 33.5667 321.082 33.6963 320.961 33.8209C320.716 34.0717 320.684 34.1293 320.72 34.2604C320.746 34.3527 320.901 34.5572 320.985 34.6082C321.103 34.6802 321.159 34.6669 321.493 34.4866C321.903 34.2659 321.915 34.2666 322.17 34.5259C322.323 34.6808 322.356 34.736 322.356 34.8355C322.356 34.9037 322.338 34.9396 322.143 35.2592C321.985 35.5176 321.969 35.5765 322.02 35.6994C322.045 35.7588 322.189 35.8935 322.302 35.9622C322.368 36.0025 322.468 36.0119 322.54 35.9845C322.564 35.9756 322.688 35.8775 322.816 35.7666C323.171 35.4592 323.197 35.454 323.474 35.6375C323.688 35.7794 323.712 35.803 323.741 35.9019C323.761 35.97 323.756 35.9929 323.653 36.2965C323.593 36.4738 323.544 36.644 323.544 36.6748C323.544 36.7056 323.562 36.7632 323.585 36.8029C323.618 36.8623 323.655 36.8903 323.796 36.9624C323.941 37.037 323.977 37.0486 324.042 37.0413C324.084 37.0366 324.139 37.0194 324.164 37.0032C324.188 36.987 324.293 36.8623 324.395 36.7261C324.614 36.4361 324.633 36.4174 324.73 36.3956C324.795 36.3809 324.827 36.388 325.013 36.4596C325.369 36.5967 325.378 36.6149 325.324 37.0851C325.28 37.4674 325.283 37.4926 325.39 37.5863C325.501 37.6841 325.805 37.7448 325.911 37.6902C325.993 37.6474 326.014 37.6151 326.151 37.3076C326.288 37.0004 326.341 36.9302 326.452 36.9093C326.53 36.8947 326.929 36.9633 326.987 37.0012C327.069 37.0551 327.1 37.1576 327.132 37.4878C327.153 37.7003 327.172 37.8108 327.194 37.8483C327.246 37.9382 327.326 37.9791 327.477 37.9933C327.706 38.0148 327.8 37.9872 327.883 37.8743C327.901 37.8496 327.946 37.6904 327.984 37.5118C328.023 37.3367 328.067 37.1726 328.084 37.1472C328.136 37.0669 328.214 37.0408 328.442 37.0262C328.809 37.0026 328.83 37.0197 328.97 37.459C329.111 37.9001 329.157 37.9394 329.474 37.8921C329.639 37.8676 329.711 37.832 329.777 37.7434C329.811 37.6968 329.815 37.662 329.823 37.319C329.835 36.8258 329.828 36.8363 330.187 36.7406C330.368 36.6923 330.409 36.687 330.47 36.7034C330.566 36.7295 330.606 36.7776 330.794 37.0933C330.969 37.3888 331.007 37.4244 331.148 37.4251C331.257 37.4255 331.476 37.3358 331.553 37.259C331.653 37.1605 331.654 37.1205 331.569 36.7425C331.52 36.5286 331.498 36.3941 331.506 36.3596C331.526 36.2705 331.599 36.2041 331.792 36.1001C331.951 36.0151 331.991 36.0007 332.074 36.0005L332.171 36.0002L332.432 36.2696C332.601 36.4432 332.711 36.5434 332.744 36.5515C332.847 36.5771 332.943 36.55 333.083 36.4555C333.237 36.3516 333.28 36.2967 333.292 36.188C333.299 36.1209 333.282 36.0731 333.154 35.7982C333.074 35.6259 333.008 35.4643 333.008 35.4391C333.008 35.336 333.048 35.2788 333.227 35.1268C333.411 34.9701 333.476 34.94 333.583 34.9615C333.612 34.9672 333.759 35.0562 333.911 35.1593C334.063 35.2624 334.209 35.3522 334.237 35.3588C334.332 35.3818 334.431 35.3383 334.542 35.2252C334.681 35.0821 334.717 35.0187 334.717 34.9149C334.717 34.8346 334.707 34.8151 334.544 34.5994C334.448 34.4729 334.352 34.3475 334.33 34.3205C334.275 34.2544 334.258 34.1473 334.291 34.0686C334.305 34.0344 334.372 33.9356 334.438 33.8491C334.648 33.5774 334.66 33.5754 335.088 33.7479C335.356 33.8559 335.422 33.8761 335.485 33.869C335.593 33.8568 335.661 33.7991 335.753 33.6429C335.91 33.3728 335.891 33.3112 335.568 33.0412C335.26 32.7846 335.253 32.7762 335.244 32.6617C335.237 32.5764 335.246 32.546 335.335 32.3564C335.424 32.1666 335.441 32.1421 335.507 32.1085C335.6 32.061 335.62 32.0617 335.982 32.1243C336.43 32.2015 336.482 32.1755 336.589 31.8227C336.665 31.5725 336.619 31.5091 336.206 31.2956C336.05 31.2148 335.911 31.1312 335.896 31.1098C335.834 31.0217 335.831 30.9515 335.879 30.7354C335.954 30.4012 335.989 30.3689 336.298 30.3511C336.829 30.3203 336.803 30.3246 336.878 30.2565C336.958 30.1839 336.978 30.1298 336.995 29.9415C337.019 29.6563 336.974 29.6111 336.544 29.4941C336.368 29.4464 336.203 29.3917 336.177 29.3726C336.089 29.3075 336.067 29.2353 336.067 29.0019C336.067 28.6437 336.082 28.6272 336.532 28.5049C336.891 28.4073 336.946 28.3772 336.986 28.2543C337.008 28.1874 336.996 27.9587 336.965 27.8591C336.955 27.8275 336.916 27.7736 336.878 27.7392C336.802 27.6706 336.813 27.6725 336.31 27.6455C336.088 27.6336 336.005 27.6038 335.956 27.5181C335.939 27.4894 335.905 27.3735 335.879 27.2605C335.831 27.0444 335.834 26.9743 335.896 26.8861C335.911 26.8647 336.05 26.7811 336.206 26.7004C336.619 26.4868 336.665 26.4235 336.589 26.1732C336.538 26.0053 336.491 25.9143 336.438 25.8793C336.345 25.8185 336.295 25.8177 335.982 25.8717C335.62 25.9343 335.6 25.9349 335.507 25.8874C335.441 25.8539 335.424 25.8294 335.335 25.6396C335.246 25.45 335.237 25.4195 335.244 25.3342C335.253 25.2198 335.26 25.2114 335.568 24.9548C335.891 24.6847 335.91 24.6231 335.753 24.3531C335.661 24.1968 335.593 24.1391 335.485 24.1269C335.422 24.1199 335.356 24.14 335.088 24.248C334.66 24.4205 334.648 24.4186 334.438 24.1469C334.372 24.0604 334.305 23.9616 334.291 23.9274C334.258 23.8487 334.275 23.7415 334.33 23.6754C334.352 23.6485 334.448 23.523 334.544 23.3965C334.707 23.1808 334.717 23.1613 334.717 23.0811C334.717 22.9773 334.681 22.9139 334.542 22.7708C334.431 22.6576 334.332 22.6142 334.237 22.6371C334.209 22.6438 334.063 22.7336 333.911 22.8367C333.759 22.9397 333.612 23.0288 333.583 23.0345C333.476 23.056 333.411 23.0258 333.227 22.8691C333.048 22.7171 333.008 22.66 333.008 22.5569C333.008 22.5317 333.074 22.3701 333.154 22.1978C333.282 21.9229 333.299 21.8751 333.292 21.808C333.28 21.6993 333.237 21.6443 333.083 21.5405C332.943 21.446 332.847 21.4188 332.744 21.4445C332.711 21.4526 332.601 21.5527 332.432 21.7264L332.171 21.9957L332.074 21.9955C331.991 21.9952 331.951 21.9808 331.792 21.8958C331.599 21.7918 331.526 21.7254 331.506 21.6364C331.498 21.6018 331.52 21.4674 331.569 21.2535C331.654 20.8754 331.653 20.8355 331.553 20.7369C331.476 20.6601 331.257 20.5704 331.148 20.5709C331.007 20.5715 330.969 20.6071 330.794 20.9026C330.606 21.2184 330.566 21.2665 330.47 21.2926C330.409 21.309 330.368 21.3036 330.187 21.2554C329.828 21.1596 329.835 21.1701 329.823 20.677C329.815 20.334 329.811 20.2992 329.777 20.2525C329.711 20.1639 329.639 20.1284 329.474 20.1038C329.282 20.0753 329.212 20.0873 329.133 20.1622C329.08 20.2123 329.057 20.2649 328.97 20.5369C328.83 20.9763 328.809 20.9934 328.442 20.9698C328.214 20.9551 328.136 20.929 328.084 20.8487C328.067 20.8234 328.023 20.6593 327.984 20.4841C327.946 20.3055 327.901 20.1463 327.883 20.1217C327.814 20.0281 327.76 20.0038 327.613 20.0004C327.537 19.9986 327.44 20.0032 327.398 20.0106ZM326.755 22.7384C326.928 22.8286 327.061 23.0106 327.104 23.2173C327.117 23.2804 327.124 23.6485 327.124 24.3039C327.124 25.3949 327.127 25.3687 327.012 25.4872C326.979 25.5217 326.904 25.5651 326.829 25.5937C326.373 25.7665 326.06 25.9443 325.713 26.2289C325.523 26.3847 325.407 26.4233 325.276 26.3743C325.249 26.3638 324.842 26.1346 324.373 25.8651C323.445 25.3321 323.378 25.2838 323.281 25.0865C323.235 24.9913 323.229 24.959 323.229 24.8161C323.229 24.5436 323.299 24.4415 323.759 24.0437C324.438 23.4578 325.268 23.003 326.134 22.7422C326.317 22.6873 326.361 22.6806 326.503 22.6857C326.635 22.6905 326.682 22.7002 326.755 22.7384ZM329.931 22.7535C330.524 22.9328 331.143 23.2284 331.674 23.5856C332.149 23.9051 332.652 24.3497 332.749 24.5367C332.796 24.6266 332.801 24.6527 332.801 24.8161C332.801 24.9872 332.798 25.0022 332.74 25.1102C332.706 25.1728 332.64 25.2579 332.594 25.2994C332.515 25.3701 330.919 26.3043 330.773 26.3654C330.633 26.424 330.522 26.3917 330.334 26.2365C330.02 25.9789 329.59 25.7319 329.238 25.6085C329.062 25.5465 328.958 25.4522 328.926 25.3245C328.899 25.2177 328.898 23.4264 328.924 23.2569C328.95 23.0929 329.032 22.9339 329.141 22.8354C329.338 22.6575 329.543 22.6363 329.931 22.7535ZM328.473 26.6544C328.945 26.7492 329.355 26.9691 329.698 27.3121C330.167 27.7803 330.399 28.3385 330.399 28.998C330.399 29.6574 330.167 30.2156 329.698 30.6839C329.351 31.0313 328.944 31.2476 328.456 31.3452C328.241 31.3882 327.78 31.3877 327.576 31.3443C326.96 31.2131 326.466 30.906 326.112 30.4341C325.795 30.0121 325.631 29.5227 325.631 28.998C325.631 27.8011 326.514 26.7937 327.709 26.629C327.874 26.6062 328.304 26.6204 328.473 26.6544ZM322.531 26.8908C322.578 26.9067 323.012 27.1472 323.496 27.4254C324.464 27.9827 324.458 27.978 324.475 28.1597C324.48 28.2087 324.469 28.3403 324.451 28.4521C324.405 28.7331 324.405 29.2629 324.451 29.5438C324.469 29.6557 324.48 29.7873 324.475 29.8363C324.458 30.0179 324.464 30.0133 323.496 30.5708C323.012 30.8491 322.574 31.0906 322.522 31.1076C322.388 31.1511 322.143 31.1379 322.032 31.0812C321.923 31.026 321.805 30.9094 321.752 30.8061C321.673 30.6517 321.578 30.2198 321.517 29.737C321.472 29.3848 321.472 28.6116 321.517 28.2589C321.576 27.7855 321.688 27.2842 321.758 27.1696C321.837 27.0408 321.989 26.9195 322.122 26.8788C322.204 26.8538 322.441 26.8608 322.531 26.8908ZM334.012 26.9223C334.136 26.9864 334.243 27.0951 334.296 27.2115C334.341 27.3109 334.425 27.6603 334.472 27.9435C334.534 28.324 334.547 28.5024 334.547 28.998C334.547 29.4936 334.534 29.6719 334.472 30.0524C334.425 30.3357 334.341 30.6851 334.296 30.7845C334.243 30.9009 334.136 31.0097 334.012 31.0735C333.885 31.1387 333.653 31.1539 333.509 31.1064C333.391 31.0673 331.702 30.0974 331.643 30.0349C331.545 29.9297 331.532 29.8277 331.581 29.5613C331.625 29.3262 331.625 28.6698 331.581 28.4347C331.534 28.176 331.545 28.0802 331.636 27.9666C331.674 27.918 333.358 26.9433 333.485 26.8961C333.625 26.844 333.885 26.8569 334.012 26.9223ZM325.506 31.6272C325.541 31.6398 325.634 31.7028 325.713 31.7671C326.061 32.0522 326.35 32.2174 326.81 32.394C326.9 32.4287 326.976 32.4717 327.012 32.5083C327.127 32.6273 327.124 32.6006 327.124 33.6921C327.124 34.3474 327.117 34.7155 327.104 34.7787C327.077 34.911 327.01 35.0402 326.921 35.1326C326.737 35.3233 326.516 35.3612 326.168 35.2619C325.317 35.0193 324.447 34.5464 323.759 33.9522C323.457 33.6914 323.338 33.5664 323.281 33.449C323.235 33.3549 323.229 33.3225 323.229 33.1798C323.229 33.037 323.235 33.0047 323.281 32.9094C323.378 32.7122 323.445 32.6638 324.373 32.1308C324.842 31.8612 325.246 31.6325 325.271 31.6227C325.333 31.5981 325.43 31.5999 325.506 31.6272ZM330.773 31.6306C330.919 31.6916 332.515 32.6259 332.594 32.6965C332.64 32.738 332.706 32.8232 332.74 32.8858C332.798 32.9938 332.801 33.0088 332.801 33.1798C332.801 33.3433 332.796 33.3693 332.749 33.4592C332.622 33.7046 331.928 34.2751 331.328 34.6289C330.735 34.9785 329.866 35.3158 329.558 35.3158C329.229 35.3158 328.979 35.0879 328.924 34.739C328.898 34.5727 328.899 32.7784 328.926 32.674C328.962 32.5288 329.043 32.4634 329.328 32.3502C329.714 32.1967 329.996 32.0316 330.318 31.771C330.527 31.602 330.629 31.5705 330.773 31.6306Z" fill="#232323"/>
</svg>
