<svg width="60" height="60" viewBox="0 0 60 60" fill="none" xmlns="http://www.w3.org/2000/svg">
<path d="M21.568 22.376C22.256 22.104 22.88 21.736 23.44 21.272C24 20.808 24.488 20.312 24.904 19.784C25.64 20.024 26.272 20.216 26.8 20.36C27.328 20.504 27.816 20.616 28.264 20.696C28.712 20.776 29.152 20.832 29.584 20.864C30.032 20.88 30.536 20.888 31.096 20.888C30.936 20.616 30.824 20.376 30.76 20.168C30.696 19.944 30.656 19.712 30.64 19.472C31.696 20.144 32.744 20.6 33.784 20.84C34.824 21.064 35.8 21.176 36.712 21.176C37 21.176 37.272 21.168 37.528 21.152C37.784 21.12 38.032 21.088 38.272 21.056C37.888 21.408 37.424 21.744 36.88 22.064C36.336 22.368 35.76 22.64 35.152 22.88C34.56 23.12 33.952 23.312 33.328 23.456C32.704 23.6 32.128 23.672 31.6 23.672C31.232 23.672 30.824 23.664 30.376 23.648C29.928 23.632 29.52 23.608 29.152 23.576C29.12 23.816 29.096 24.064 29.08 24.32C29.08 24.576 29.08 24.84 29.08 25.112V27.872C29.4 27.936 29.76 27.968 30.16 27.968C30.528 27.968 30.904 27.888 31.288 27.728C31.672 27.552 32.048 27.36 32.416 27.152C32.864 27.456 33.328 27.776 33.808 28.112C34.288 28.448 34.8 28.776 35.344 29.096C34.88 29.368 34.392 29.688 33.88 30.056C33.368 30.424 32.888 30.768 32.44 31.088C32.104 30.864 31.744 30.68 31.36 30.536C30.992 30.392 30.624 30.32 30.256 30.32C29.872 30.32 29.488 30.376 29.104 30.488C29.12 31.096 29.12 31.752 29.104 32.456C29.104 33.144 29.152 33.816 29.248 34.472C29.344 35.112 29.512 35.712 29.752 36.272C29.992 36.816 30.36 37.24 30.856 37.544C30.168 37.864 29.64 38.216 29.272 38.6C28.92 38.984 28.568 39.408 28.216 39.872C27.944 39.408 27.488 38.968 26.848 38.552C26.224 38.152 25.552 37.816 24.832 37.544C24.992 37.304 25.128 37.032 25.24 36.728C25.368 36.408 25.472 36.072 25.552 35.72C25.632 35.352 25.688 34.984 25.72 34.616C25.768 34.232 25.792 33.856 25.792 33.488C25.792 32.672 25.696 31.912 25.504 31.208C25.328 30.504 25.072 29.976 24.736 29.624C25.152 29.048 25.44 28.296 25.6 27.368C25.776 26.424 25.864 25.44 25.864 24.416C25.864 24.192 25.856 23.968 25.84 23.744C25.84 23.504 25.832 23.272 25.816 23.048C25.24 22.872 24.68 22.712 24.136 22.568C23.608 22.408 23.152 22.328 22.768 22.328C22.544 22.328 22.336 22.344 22.144 22.376C21.968 22.392 21.784 22.416 21.592 22.448L21.568 22.376Z" fill="#FFC806"/>
<path fill-rule="evenodd" clip-rule="evenodd" d="M28.6784 0.0192324C27.9805 0.0559702 27.3762 0.107685 27.3545 0.132537C27.3443 0.144123 27.1849 1.44352 27.0002 3.02003C26.8155 4.59655 26.6572 5.928 26.6485 5.97881L26.6325 6.0712L26.2822 6.12315C24.7794 6.34604 23.0821 6.7905 21.5414 7.36456C21.2068 7.48921 20.9287 7.58582 20.9234 7.57922C20.9182 7.57265 20.2947 6.73659 19.5379 5.72135C18.7811 4.7061 17.9768 3.62888 17.7505 3.3275L17.339 2.77959L16.5176 3.19406C15.6451 3.63428 14.7918 4.11509 14.0302 4.5958C13.4232 4.97888 12.7695 5.42477 12.7695 5.45572C12.7695 5.46916 13.2909 6.69262 13.9283 8.1745C14.5656 9.65641 15.0933 10.8899 15.1009 10.9156C15.1103 10.9472 14.9907 11.0631 14.73 11.2749C13.5235 12.2555 12.2644 13.5158 11.2581 14.7502C11.0561 14.9981 10.9414 15.1155 10.9101 15.1066C10.8844 15.0993 9.65061 14.5716 8.16831 13.934C6.68601 13.2965 5.46231 12.7748 5.44899 12.7748C5.38505 12.7748 4.45726 14.2169 3.9138 15.1609C3.53048 15.8268 2.76337 17.3399 2.79537 17.367C2.81287 17.3817 7.51184 20.8845 7.57284 20.9282C7.57905 20.9327 7.48939 21.1902 7.37355 21.5003C6.7939 23.0528 6.3392 24.7853 6.1168 26.2889C6.08811 26.4828 6.05698 26.6423 6.04764 26.6432C6.03831 26.644 4.7003 26.8029 3.07432 26.9962L0.117948 27.3476L0.0981366 27.4861C-0.0327072 28.4007 -0.0327072 31.6055 0.0981066 32.52L0.117888 32.6583L3.07429 33.0099C4.70027 33.2033 6.03831 33.3623 6.04764 33.3632C6.05698 33.3641 6.08817 33.5235 6.11695 33.7175C6.34346 35.2442 6.79999 36.9732 7.39718 38.5661L7.58613 39.0702L7.51379 39.1208C6.97979 39.4948 2.79135 42.6575 2.79825 42.6815C2.85618 42.8831 3.61306 44.3298 4.06382 45.1005C4.57231 45.9699 5.39264 47.2315 5.44947 47.2315C5.4627 47.2315 6.68625 46.7099 8.16846 46.0724C9.65067 45.4349 10.8845 44.9072 10.9104 44.8998C10.9421 44.8907 11.0553 45.0064 11.2588 45.256C12.2749 46.5019 13.4991 47.7261 14.7451 48.7421C14.9948 48.9456 15.1105 49.0588 15.1014 49.0905C15.094 49.1163 14.5663 50.3501 13.9287 51.8322C13.2911 53.3143 12.7695 54.5387 12.7695 54.553C12.7695 54.5796 13.763 55.2476 14.2553 55.552C15.1437 56.1013 16.392 56.7806 17.1384 57.121L17.35 57.2175L19.1346 54.8229C20.116 53.5059 20.9333 52.4273 20.9508 52.4262C20.9682 52.425 21.0965 52.47 21.2359 52.5262C22.6499 53.0956 24.7134 53.65 26.2846 53.8826C26.4786 53.9113 26.6381 53.9427 26.6391 53.9524C26.6401 53.962 26.799 55.3001 26.9923 56.926L27.3436 59.8821L27.4821 59.9019C28.3968 60.0327 31.6017 60.0327 32.5164 59.9019L32.655 59.8821L33.0065 56.9259C33.1998 55.3001 33.3586 53.9622 33.3595 53.9528C33.3604 53.9435 33.5198 53.9123 33.7138 53.8835C35.2406 53.657 36.9698 53.2005 38.5628 52.6034L39.0669 52.4145L39.1175 52.4868C39.1588 52.5457 42.6275 57.1921 42.6508 57.2196C42.6689 57.2411 44.3706 56.3576 44.9026 56.0506C45.8364 55.5117 47.2289 54.614 47.2289 54.551C47.2289 54.5377 46.7073 53.3142 46.0697 51.8322C45.4322 50.3501 44.9045 49.1163 44.897 49.0905C44.8879 49.0588 45.0033 48.9459 45.2532 48.7421C46.4975 47.7275 47.7299 46.4955 48.7402 45.2561C48.9425 45.008 49.0569 44.8908 49.0883 44.8998C49.114 44.9071 50.3477 45.4348 51.83 46.0724C53.3122 46.7099 54.5357 47.2315 54.549 47.2315C54.5795 47.2315 55.0275 46.5746 55.4085 45.9709C55.9767 45.0707 56.7769 43.62 57.1144 42.878L57.2175 42.6515L54.8214 40.867C53.5036 39.8856 52.4246 39.0707 52.4236 39.0562C52.4226 39.0417 52.498 38.8323 52.5911 38.591C53.1617 37.1115 53.6919 35.0939 53.8953 33.6274C53.9154 33.483 53.9398 33.364 53.9498 33.3631C53.9596 33.3622 55.2982 33.2031 56.9244 33.0097L59.881 32.6581L59.9015 32.4937C59.9628 31.9995 60 31.0584 60 30.0032C60 28.948 59.9628 28.0068 59.9015 27.5126L59.881 27.3482L56.9244 26.9966C55.2982 26.8032 53.9601 26.6442 53.9507 26.6432C53.9414 26.6423 53.9102 26.4828 53.8814 26.2889C53.6489 24.7215 53.0923 22.6517 52.5239 21.2406C52.4678 21.1012 52.4227 20.9728 52.4237 20.9554C52.4247 20.938 53.5035 20.1205 54.821 19.1388L57.2165 17.3539L57.0839 17.0678C56.7171 16.2765 55.9735 14.9305 55.4085 14.0354C55.0275 13.4317 54.5795 12.7748 54.549 12.7748C54.5357 12.7748 53.3122 13.2964 51.83 13.934C50.3477 14.5715 49.1138 15.0992 49.088 15.1066C49.0563 15.1156 48.9429 14.9997 48.7395 14.7503C47.7235 13.5044 46.4993 12.2802 45.2532 11.2643C45.0043 11.0612 44.8878 10.9474 44.8968 10.9158C44.9041 10.89 45.4318 9.65608 46.0695 8.17384C46.7072 6.69157 47.2289 5.46718 47.2289 5.45299C47.2289 5.4007 45.8425 4.50272 45.0377 4.03369C44.312 3.61081 42.8678 2.85834 42.6782 2.80435C42.66 2.79915 41.8583 3.84844 40.8967 5.13606C39.9351 6.42369 39.1244 7.50214 39.0951 7.53264C39.0434 7.58642 39.0288 7.58312 38.6103 7.42257C37.0786 6.83504 35.2708 6.35489 33.7213 6.1242C33.5314 6.09593 33.3717 6.06922 33.3662 6.06483C33.3608 6.06045 33.1983 4.72198 33.005 3.09051L32.6536 0.124163L32.5046 0.103693C31.9009 0.0207931 29.6098 -0.0297515 28.6784 0.0192324ZM31.2149 12.4159C35.9738 12.7311 40.4616 15.0258 43.5331 18.7146C45.9152 21.5755 47.32 25.0484 47.5895 28.7425C47.6305 29.3043 47.6303 30.7054 47.5892 31.2638C47.2148 36.3499 44.7044 40.9638 40.6252 44.0631C37.9199 46.1186 34.7234 47.3251 31.2749 47.5925C30.7218 47.6354 29.2906 47.635 28.7235 47.5918C24.4458 47.2661 20.5654 45.4858 17.5404 42.461C14.3599 39.2808 12.5343 35.1027 12.3823 30.656C12.2802 27.6675 12.8803 24.8521 14.1817 22.2144C15.5656 19.4093 17.7261 16.9706 20.3487 15.2529C23.584 13.1341 27.3224 12.158 31.2149 12.4159ZM29.2938 13.5441C27.505 13.6299 25.7423 13.9972 24.1116 14.624C19.271 16.4849 15.5639 20.539 14.1508 25.5173C13.2006 28.8651 13.3457 32.4876 14.5602 35.736C16.709 41.4829 21.8924 45.5915 27.943 46.344C29.2607 46.5078 30.7377 46.5078 32.0553 46.344C35.234 45.9487 38.2544 44.6057 40.7302 42.4869C41.1927 42.0911 42.0881 41.1958 42.4839 40.7334C44.6028 38.2578 45.9471 35.2348 46.3411 32.0592C46.5177 30.636 46.5019 29.0247 46.2975 27.6258C45.2483 20.4448 39.5578 14.7516 32.3855 13.7075C31.5001 13.5786 30.1091 13.5051 29.2938 13.5441ZM31.0379 15.8668C34.0631 16.1053 36.8074 17.2211 39.1243 19.1544C39.5262 19.4898 40.2746 20.2259 40.6637 20.6686C43.3326 23.7049 44.5658 27.7492 44.0593 31.804C43.7657 34.1538 42.8396 36.4705 41.4279 38.3867C40.9956 38.9733 40.6019 39.4266 40.0126 40.0158C39.2369 40.7915 38.5511 41.3517 37.7079 41.8986C34.6778 43.864 31 44.5941 27.4177 43.9415C23.6567 43.2562 20.292 41.0217 18.158 37.7919C16.828 35.7789 16.0564 33.5109 15.8617 31.0418C15.7974 30.2266 15.8285 29.088 15.9391 28.2023C16.0901 26.9932 16.4558 25.6269 16.9271 24.5105C18.0164 21.93 19.8592 19.7158 22.2098 18.1629C24.1998 16.8483 26.487 16.0645 28.9036 15.869C29.3473 15.8331 30.594 15.8318 31.0379 15.8668Z" fill="#FFC806"/>
</svg>
